<svg xmlns="http://www.w3.org/2000/svg" xmlns:xlink="http://www.w3.org/1999/xlink" width="500" zoomAndPan="magnify" viewBox="0 0 375 374.999991" height="500" preserveAspectRatio="xMidYMid meet" version="1.0"><defs><g/><clipPath id="d841d4a205"><rect x="0" width="187" y="0" height="81"/></clipPath><clipPath id="740e3f0f19"><rect x="0" width="178" y="0" height="81"/></clipPath></defs><g transform="matrix(1, 0, 0, 1, 0, 153)"><g clip-path="url(#d841d4a205)"><g fill="#000000" fill-opacity="1"><g transform="translate(0.0351006, 58.054913)"><g><path d="M 18.484375 0.765625 C 14.960938 0.765625 11.890625 0.113281 9.265625 -1.1875 C 6.640625 -2.488281 4.59375 -4.300781 3.125 -6.625 C 1.664062 -8.957031 0.9375 -11.660156 0.9375 -14.734375 C 0.9375 -17.859375 1.664062 -20.582031 3.125 -22.90625 C 4.59375 -25.238281 6.644531 -27.054688 9.28125 -28.359375 C 11.925781 -29.660156 14.992188 -30.3125 18.484375 -30.3125 C 21.785156 -30.3125 24.695312 -29.738281 27.21875 -28.59375 C 29.75 -27.457031 31.773438 -25.84375 33.296875 -23.75 C 34.816406 -21.664062 35.707031 -19.191406 35.96875 -16.328125 L 22.609375 -16.328125 C 21.867188 -17.910156 20.640625 -18.703125 18.921875 -18.703125 C 17.785156 -18.703125 16.867188 -18.332031 16.171875 -17.59375 C 15.472656 -16.863281 15.125 -15.910156 15.125 -14.734375 C 15.125 -13.566406 15.472656 -12.625 16.171875 -11.90625 C 16.867188 -11.1875 17.785156 -10.828125 18.921875 -10.828125 C 20.785156 -10.828125 22.03125 -11.671875 22.65625 -13.359375 L 36.03125 -13.359375 C 35.800781 -10.460938 34.925781 -7.957031 33.40625 -5.84375 C 31.882812 -3.738281 29.859375 -2.109375 27.328125 -0.953125 C 24.804688 0.191406 21.859375 0.765625 18.484375 0.765625 Z M 18.484375 0.765625 "/></g></g></g><g fill="#87ceeb" fill-opacity="1"><g transform="translate(33.107732, 58.054913)"><g><path d="M 2.46875 0 L 2.46875 -29.53125 L 17.109375 -29.53125 L 17.109375 0 Z M 1.65625 -39.9375 C 1.65625 -42.207031 2.382812 -44.046875 3.84375 -45.453125 C 5.3125 -46.867188 7.296875 -47.578125 9.796875 -47.578125 C 12.285156 -47.578125 14.253906 -46.867188 15.703125 -45.453125 C 17.148438 -44.046875 17.875 -42.207031 17.875 -39.9375 C 17.875 -37.695312 17.148438 -35.859375 15.703125 -34.421875 C 14.253906 -32.992188 12.285156 -32.28125 9.796875 -32.28125 C 7.296875 -32.28125 5.3125 -32.992188 3.84375 -34.421875 C 2.382812 -35.859375 1.65625 -37.695312 1.65625 -39.9375 Z M 1.65625 -39.9375 "/></g></g></g><g fill="#000000" fill-opacity="1"><g transform="translate(48.847224, 58.054913)"><g><path d="M 19.6875 0 C 15 0 11.507812 -1.003906 9.21875 -3.015625 C 6.925781 -5.035156 5.78125 -8.097656 5.78125 -12.203125 L 5.78125 -18.375 L 0.65625 -18.375 L 0.65625 -29.53125 L 3.1875 -29.53125 C 5.019531 -29.53125 6.273438 -29.804688 6.953125 -30.359375 C 7.628906 -30.910156 8.117188 -32.007812 8.421875 -33.65625 L 9.015625 -37.296875 L 20.40625 -37.296875 L 20.40625 -29.53125 L 26.671875 -29.53125 L 26.671875 -18.53125 L 20.40625 -18.53125 L 20.40625 -15.296875 C 20.40625 -14.003906 20.707031 -13.066406 21.3125 -12.484375 C 21.914062 -11.898438 22.894531 -11.609375 24.25 -11.609375 L 26.890625 -11.609375 L 26.890625 0 Z M 19.6875 0 "/></g></g></g><g fill="#87ceeb" fill-opacity="1"><g transform="translate(73.55769, 58.054913)"><g><path d="M 2.46875 0 L 2.46875 -29.53125 L 17.109375 -29.53125 L 17.109375 0 Z M 1.65625 -39.9375 C 1.65625 -42.207031 2.382812 -44.046875 3.84375 -45.453125 C 5.3125 -46.867188 7.296875 -47.578125 9.796875 -47.578125 C 12.285156 -47.578125 14.253906 -46.867188 15.703125 -45.453125 C 17.148438 -44.046875 17.875 -42.207031 17.875 -39.9375 C 17.875 -37.695312 17.148438 -35.859375 15.703125 -34.421875 C 14.253906 -32.992188 12.285156 -32.28125 9.796875 -32.28125 C 7.296875 -32.28125 5.3125 -32.992188 3.84375 -34.421875 C 2.382812 -35.859375 1.65625 -37.695312 1.65625 -39.9375 Z M 1.65625 -39.9375 "/></g></g></g><g fill="#000000" fill-opacity="1"><g transform="translate(89.297183, 58.054913)"><g><path d="M 1.3125 0 L 1.3125 -8.796875 L 11.21875 -18.859375 L 11.0625 -19.25 L 7.59375 -18.96875 L 1.65625 -18.96875 L 1.65625 -29.53125 L 28.8125 -29.53125 L 28.8125 -20.796875 L 18.96875 -10.71875 L 19.078125 -10.28125 L 22.828125 -10.5 L 29.15625 -10.5 L 29.15625 0 Z M 1.3125 0 "/></g></g></g><g fill="#000000" fill-opacity="1"><g transform="translate(115.535912, 58.054913)"><g><path d="M 18.3125 0.765625 C 14.863281 0.765625 11.835938 0.113281 9.234375 -1.1875 C 6.628906 -2.488281 4.59375 -4.300781 3.125 -6.625 C 1.664062 -8.957031 0.9375 -11.660156 0.9375 -14.734375 C 0.9375 -17.816406 1.675781 -20.53125 3.15625 -22.875 C 4.644531 -25.226562 6.71875 -27.054688 9.375 -28.359375 C 12.03125 -29.660156 15.101562 -30.3125 18.59375 -30.3125 C 22.40625 -30.3125 25.648438 -29.554688 28.328125 -28.046875 C 31.003906 -26.546875 33.019531 -24.425781 34.375 -21.6875 C 35.726562 -18.957031 36.296875 -15.742188 36.078125 -12.046875 L 14.796875 -12.046875 C 15.054688 -10.867188 15.550781 -10.015625 16.28125 -9.484375 C 17.007812 -8.953125 17.890625 -8.6875 18.921875 -8.6875 C 20.460938 -8.6875 21.582031 -9.128906 22.28125 -10.015625 L 35.6875 -10.015625 C 34.59375 -6.566406 32.523438 -3.90625 29.484375 -2.03125 C 26.441406 -0.164062 22.71875 0.765625 18.3125 0.765625 Z M 14.84375 -17.703125 L 22.609375 -17.703125 C 22.160156 -19.796875 20.894531 -20.84375 18.8125 -20.84375 C 17.820312 -20.84375 16.976562 -20.59375 16.28125 -20.09375 C 15.582031 -19.601562 15.101562 -18.804688 14.84375 -17.703125 Z M 14.84375 -17.703125 "/></g></g></g><g fill="#000000" fill-opacity="1"><g transform="translate(148.760624, 58.054913)"><g><path d="M 2.46875 0 L 2.46875 -29.53125 L 12.875 -29.53125 L 14.1875 -26.234375 C 16.71875 -28.953125 20.070312 -30.3125 24.25 -30.3125 C 28.101562 -30.3125 31.128906 -29.203125 33.328125 -26.984375 C 35.523438 -24.765625 36.625 -21.691406 36.625 -17.765625 L 36.625 0 L 22 0 L 22 -15.734375 C 22 -17.785156 21.191406 -18.8125 19.578125 -18.8125 C 17.929688 -18.8125 17.109375 -17.75 17.109375 -15.625 L 17.109375 0 Z M 2.46875 0 "/></g></g></g></g></g><g transform="matrix(1, 0, 0, 1, 196, 153)"><g clip-path="url(#740e3f0f19)"><g fill="#ffd700" fill-opacity="1"><g transform="translate(0.309098, 58.054913)"><g><path d="M 12.4375 0.71875 C 8.914062 0.71875 6.171875 -0.0859375 4.203125 -1.703125 C 2.242188 -3.316406 1.265625 -5.535156 1.265625 -8.359375 C 1.265625 -11.078125 2.171875 -13.25 3.984375 -14.875 C 5.796875 -16.507812 8.265625 -17.328125 11.390625 -17.328125 L 20.40625 -17.328125 L 20.40625 -19.078125 C 20.40625 -19.703125 20.203125 -20.207031 19.796875 -20.59375 C 19.390625 -20.976562 18.859375 -21.171875 18.203125 -21.171875 C 17.578125 -21.171875 17.0625 -20.988281 16.65625 -20.625 C 16.257812 -20.257812 16.039062 -19.765625 16 -19.140625 L 2.6875 -19.140625 C 3.757812 -26.585938 8.988281 -30.3125 18.375 -30.3125 C 23.6875 -30.3125 27.707031 -29.117188 30.4375 -26.734375 C 33.175781 -24.347656 34.546875 -20.828125 34.546875 -16.171875 L 34.546875 0 L 24.09375 0 L 22.828125 -3.296875 C 20.296875 -0.617188 16.832031 0.71875 12.4375 0.71875 Z M 14.84375 -9.734375 C 14.84375 -9.148438 15.070312 -8.679688 15.53125 -8.328125 C 15.988281 -7.984375 16.601562 -7.8125 17.375 -7.8125 C 18.363281 -7.8125 19.148438 -8.082031 19.734375 -8.625 C 20.328125 -9.175781 20.625 -9.945312 20.625 -10.9375 L 20.625 -11.65625 L 17.375 -11.65625 C 16.601562 -11.65625 15.988281 -11.488281 15.53125 -11.15625 C 15.070312 -10.832031 14.84375 -10.359375 14.84375 -9.734375 Z M 14.84375 -9.734375 "/></g></g></g><g fill="#ffd700" fill-opacity="1"><g transform="translate(33.038732, 58.054913)"><g><path d="M 18.484375 0.765625 C 14.960938 0.765625 11.890625 0.113281 9.265625 -1.1875 C 6.640625 -2.488281 4.59375 -4.300781 3.125 -6.625 C 1.664062 -8.957031 0.9375 -11.660156 0.9375 -14.734375 C 0.9375 -17.859375 1.664062 -20.582031 3.125 -22.90625 C 4.59375 -25.238281 6.644531 -27.054688 9.28125 -28.359375 C 11.925781 -29.660156 14.992188 -30.3125 18.484375 -30.3125 C 21.785156 -30.3125 24.695312 -29.738281 27.21875 -28.59375 C 29.75 -27.457031 31.773438 -25.84375 33.296875 -23.75 C 34.816406 -21.664062 35.707031 -19.191406 35.96875 -16.328125 L 22.609375 -16.328125 C 21.867188 -17.910156 20.640625 -18.703125 18.921875 -18.703125 C 17.785156 -18.703125 16.867188 -18.332031 16.171875 -17.59375 C 15.472656 -16.863281 15.125 -15.910156 15.125 -14.734375 C 15.125 -13.566406 15.472656 -12.625 16.171875 -11.90625 C 16.867188 -11.1875 17.785156 -10.828125 18.921875 -10.828125 C 20.785156 -10.828125 22.03125 -11.671875 22.65625 -13.359375 L 36.03125 -13.359375 C 35.800781 -10.460938 34.925781 -7.957031 33.40625 -5.84375 C 31.882812 -3.738281 29.859375 -2.109375 27.328125 -0.953125 C 24.804688 0.191406 21.859375 0.765625 18.484375 0.765625 Z M 18.484375 0.765625 "/></g></g></g><g fill="#ffd700" fill-opacity="1"><g transform="translate(65.713371, 58.054913)"><g><path d="M 19.6875 0 C 15 0 11.507812 -1.003906 9.21875 -3.015625 C 6.925781 -5.035156 5.78125 -8.097656 5.78125 -12.203125 L 5.78125 -18.375 L 0.65625 -18.375 L 0.65625 -29.53125 L 3.1875 -29.53125 C 5.019531 -29.53125 6.273438 -29.804688 6.953125 -30.359375 C 7.628906 -30.910156 8.117188 -32.007812 8.421875 -33.65625 L 9.015625 -37.296875 L 20.40625 -37.296875 L 20.40625 -29.53125 L 26.671875 -29.53125 L 26.671875 -18.53125 L 20.40625 -18.53125 L 20.40625 -15.296875 C 20.40625 -14.003906 20.707031 -13.066406 21.3125 -12.484375 C 21.914062 -11.898438 22.894531 -11.609375 24.25 -11.609375 L 26.890625 -11.609375 L 26.890625 0 Z M 19.6875 0 "/></g></g></g><g fill="#f08080" fill-opacity="1"><g transform="translate(90.412768, 58.054913)"><g><path d="M 2.46875 0 L 2.46875 -29.53125 L 17.109375 -29.53125 L 17.109375 0 Z M 1.65625 -39.9375 C 1.65625 -42.207031 2.382812 -44.046875 3.84375 -45.453125 C 5.3125 -46.867188 7.296875 -47.578125 9.796875 -47.578125 C 12.285156 -47.578125 14.253906 -46.867188 15.703125 -45.453125 C 17.148438 -44.046875 17.875 -42.207031 17.875 -39.9375 C 17.875 -37.695312 17.148438 -35.859375 15.703125 -34.421875 C 14.253906 -32.992188 12.285156 -32.28125 9.796875 -32.28125 C 7.296875 -32.28125 5.3125 -32.992188 3.84375 -34.421875 C 2.382812 -35.859375 1.65625 -37.695312 1.65625 -39.9375 Z M 1.65625 -39.9375 "/></g></g></g><g fill="#97cfca" fill-opacity="1"><g transform="translate(106.152261, 58.054913)"><g><path d="M 18.96875 0.765625 C 15.34375 0.765625 12.179688 0.132812 9.484375 -1.125 C 6.785156 -2.394531 4.6875 -4.191406 3.1875 -6.515625 C 1.6875 -8.847656 0.9375 -11.585938 0.9375 -14.734375 C 0.9375 -17.890625 1.6875 -20.628906 3.1875 -22.953125 C 4.6875 -25.285156 6.785156 -27.09375 9.484375 -28.375 C 12.179688 -29.664062 15.34375 -30.3125 18.96875 -30.3125 C 22.601562 -30.3125 25.765625 -29.664062 28.453125 -28.375 C 31.148438 -27.09375 33.25 -25.285156 34.75 -22.953125 C 36.257812 -20.628906 37.015625 -17.890625 37.015625 -14.734375 C 37.015625 -11.585938 36.257812 -8.847656 34.75 -6.515625 C 33.25 -4.191406 31.148438 -2.394531 28.453125 -1.125 C 25.765625 0.132812 22.601562 0.765625 18.96875 0.765625 Z M 15.125 -14.734375 C 15.125 -13.566406 15.476562 -12.625 16.1875 -11.90625 C 16.90625 -11.1875 17.832031 -10.828125 18.96875 -10.828125 C 20.144531 -10.828125 21.085938 -11.1875 21.796875 -11.90625 C 22.515625 -12.625 22.875 -13.566406 22.875 -14.734375 C 22.875 -15.910156 22.515625 -16.863281 21.796875 -17.59375 C 21.085938 -18.332031 20.144531 -18.703125 18.96875 -18.703125 C 17.832031 -18.703125 16.90625 -18.332031 16.1875 -17.59375 C 15.476562 -16.863281 15.125 -15.910156 15.125 -14.734375 Z M 15.125 -14.734375 "/></g></g></g><g fill="#97cfca" fill-opacity="1"><g transform="translate(140.2571, 58.054913)"><g><path d="M 2.46875 0 L 2.46875 -29.53125 L 12.875 -29.53125 L 14.1875 -26.234375 C 16.71875 -28.953125 20.070312 -30.3125 24.25 -30.3125 C 28.101562 -30.3125 31.128906 -29.203125 33.328125 -26.984375 C 35.523438 -24.765625 36.625 -21.691406 36.625 -17.765625 L 36.625 0 L 22 0 L 22 -15.734375 C 22 -17.785156 21.191406 -18.8125 19.578125 -18.8125 C 17.929688 -18.8125 17.109375 -17.75 17.109375 -15.625 L 17.109375 0 Z M 2.46875 0 "/></g></g></g></g></g></svg>